# xmcd CD database file
#
# Track frame offsets:
#	150
#	12977
#	42228
#	59106
#	74041
#	93759
#	109014
#	125752
#	146258
#	151971
#	157765
#	172437
#	187360
#	198878
#	215794
#	238431
#
# Disc length: 3390 seconds
#
# Revision: 0
# Processed by: cddbd v1.5PL3 Copyright (c) Steve Scherf et al.
# Submitted via: CDex 1.51
#
DISCID=f90d3c10
DTITLE=Lifescapes - Celtic Harp
DYEAR=1900
DGENRE=New Age
TTITLE0=The Ash Grove
TTITLE1=Martin Wynn's Air
TTITLE2=Danny Boy
TTITLE3=The Water Is Wide
TTITLE4=Carrikfergus
TTITLE5=Carolan's Dream
TTITLE6=Butterfly
TTITLE7=She Moves Through The Fair
TTITLE8=Chanter
TTITLE9=I Love My Love
TTITLE10=I Will Go With My Father
TTITLE11=Be Thou My Vision/Slane
TTITLE12=Eleanor Plunkett
TTITLE13=Blind Mary
TTITLE14=Arran Boat Song
TTITLE15=The Olden Times
EXTD=
EXTT0=
EXTT1=
EXTT2=
EXTT3=
EXTT4=
EXTT5=
EXTT6=
EXTT7=
EXTT8=
EXTT9=
EXTT10=
EXTT11=
EXTT12=
EXTT13=
EXTT14=
EXTT15=
PLAYORDER=
